<svg height="84" viewBox="0 0 84 84" width="84" xmlns="http://www.w3.org/2000/svg"><g fill="none" fill-rule="evenodd"><circle cx="42" cy="42" fill="#1eaeff" r="42"/><g fill="#fff" transform="translate(24.5 23)"><path d="m17.4076615 3.26115139c.0810224 0 .1579937.01215336.234965.03646008l13.3281839 4.03896638c.3443452.10532912.575259.41726534.575259.77376387v17.23751448c0 1.6407035-.4537254 3.2489981-1.3085116 4.6466344-.8547863 1.4016874-2.0782245 2.5360009-3.5366276 3.2854581l-9.2932687 4.7641168-9.28921754-4.7641168c-1.4584031-.7494572-2.68184127-1.8837707-3.53662753-3.2854581-.85478627-1.4016875-1.30851168-3.0059309-1.30851168-4.6466344v-17.23751448c0-.36054965.23091383-.67248587.57525901-.77376387l13.32818394-4.03896638c.0729202-.02430672.1539426-.03646008.2309138-.03646008m0-3.24089579c-.3970097 0-.7899683.05671568-1.1748247.17419815l-13.32818394 4.03896638c-1.70957254.51854333-2.87629502 2.09037779-2.87629502 3.87692159v17.23751448c0 4.5575097 2.55220544 8.7342142 6.6073763 10.8124386l9.66597166 4.9585706c.3483963.1782493.7292016.2673739 1.1100069.2673739.3808052 0 .7616105-.0891246 1.1100068-.2673739l9.6619205-4.9545195c4.0551709-2.0782244 6.6073763-6.2549288 6.6073763-10.8124386v-17.24156558c0-1.7865438-1.1667224-3.35837826-2.876295-3.87692159l-13.3281839-4.03896638c-.3848564-.11748247-.7818661-.17419815-1.1788759-.17419815z"/><path d="m15.8925427 28.2363046c-.4132142 0-.8304795-.1579937-1.1464668-.473981l-4.98287732-4.9828773c-.63197468-.6319747-.63197468-1.656908 0-2.2929338.63197472-.6360258 1.65690802-.6319746 2.29293382 0l3.8364103 3.8364104 9.3054221-9.305422c.6319747-.6319747 1.656908-.6319747 2.2929338 0s.6319747 1.656908 0 2.2929338l-10.451889 10.4518889c-.3200384.3159873-.7332526.473981-1.1464669.473981zm16.475904-14.5192132c-.1539425 0-.3119362-.0243067-.4699298-.068869l-13.7211426-4.16049996c-.4820833-.14584031-.9965755-.14584031-1.4786587 0l-13.72114259 4.15644886c-.85478627.2592717-1.76223709-.2228116-2.02150875-1.081649s.22281158-1.7622371 1.08164897-2.0215087l13.72114257-4.15644889c1.0978534-.33219182 2.2605248-.33219182 3.3583783 0l13.7211425 4.15644889c.8547863.2592716 1.3409207 1.1626713 1.081649 2.0215087-.2147093.7008437-.8547863 1.1545691-1.5515789 1.1545691z"/></g></g></svg>