<svg height="84" viewBox="0 0 84 84" width="84" xmlns="http://www.w3.org/2000/svg"><g fill="none" fill-rule="evenodd"><circle cx="42" cy="42" fill="#ffd000" r="42"/><path d="m41.7180176 2.296875-2.1738281-2.17382812c-.0820313-.08203125-.1845704-.11791993-.2922364-.11791993s-.2102051.04101563-.2922363.11791993l-3.9016113 3.90161132c-1.7277832-1.17407226-3.7375489-1.75854492-5.7473145-1.75854492-2.625 0-5.25.99975586-7.2546387 3.00439453l-5.2243652 5.22436519c-.1589355.1589356-.1589355.4204102 0 .5793458l13.9299316 13.9299316c.0820313.0820312.1845704.1179199.2922364.1179199.102539 0 .2102051-.0410156.2922363-.1179199l5.2243652-5.2243652c3.5324707-3.5375977 3.9477539-9.0080567 1.2458496-12.99682622l3.9016114-3.90161132c.1589355-.1640625.1589355-.42553711 0-.58447266zm-7.6186524 15.0168457-3.0454101 3.0454102-9.5771485-9.5771485 3.0454102-3.04541013c1.2766113-1.27661133 2.9787598-1.98413086 4.7885742-1.98413086 1.8098145 0 3.506836.70239257 4.7885742 1.98413086 1.2766114 1.27661132 1.9841309 2.97875973 1.9841309 4.78857423 0 1.8098144-.7075195 3.5068359-1.9841309 4.7885742zm-9.7514648 5.3833008c-.1589356-.1589356-.4204102-.1589356-.5793457 0l-3.4145508 3.4145508-4.6296387-4.6296387 3.4196778-3.4196777c.1589355-.1589356.1589355-.4204102 0-.5793457l-1.866211-1.866211c-.1589355-.1589355-.4204101-.1589355-.5793457 0l-3.4196777 3.4196778-2.2045898-2.2045899c-.0820313-.0820312-.1845704-.1179199-.2922364-.1179199-.102539 0-.2102051.0410156-.2922363.1179199l-5.21923829 5.2243652c-3.5324707 3.5375977-3.9477539 9.0080567-1.24584961 12.9968262l-3.90161132 3.9016113c-.15893555.1589356-.15893555.4204102 0 .5793457l2.17382812 2.1738282c.08203125.0820312.18457031.1179199.29223633.1179199.10766601 0 .21020508-.0410156.29223633-.1179199l3.90161132-3.9016114c1.72778321 1.1740723 3.73754882 1.758545 5.74731442 1.758545 2.625 0 5.25-.9997559 7.2546387-3.0043946l5.2243652-5.2243652c.1589356-.1589355.1589356-.4204102 0-.5793457l-2.2045898-2.2045898 3.4196777-3.4196778c.1589356-.1589355.1589356-.4204101 0-.5793457zm-7.0341797 11.4023437c-1.2766113 1.2766114-2.9787598 1.9841309-4.7885742 1.9841309-1.8098145 0-3.50683595-.7023926-4.78857423-1.9841309-1.27661133-1.2766113-1.98413086-2.9787597-1.98413086-4.7885742 0-1.8098144.70239257-3.5068359 1.98413086-4.7885742l3.04541013-3.0454102 9.5771485 9.5771485z" fill="#fff" transform="translate(21 21)"/></g></svg>