<svg height="84" viewBox="0 0 84 84" width="84" xmlns="http://www.w3.org/2000/svg"><g fill="none" fill-rule="evenodd"><circle cx="42" cy="42" fill="#04f" r="42"/><path d="m35 25c.8284271 0 1.5.6715729 1.5 1.5 0 .7796961-.5948881 1.4204487-1.35554 1.4931334l-.14446.0068666h-8c-1.3254834 0-2.4100387 1.0315359-2.4946823 2.3356243l-.0053177.1643757v18c0 1.3254834 1.0315359 2.4100387 2.3356243 2.4946823l.1643757.0053177h30c1.3254834 0 2.4100387-1.0315359 2.4946823-2.3356243l.0053177-.1643757v-18c0-1.3254834-1.0315359-2.4100387-2.3356243-2.4946823l-.1643757-.0053177h-8c-.8284271 0-1.5-.6715729-1.5-1.5 0-.7796961.5948881-1.4204487 1.35554-1.4931334l.14446-.0068666h8c2.9634791 0 5.3795391 2.34378 5.4956328 5.2787929l.0043672.2212071v18c0 2.9634791-2.34378 5.3795391-5.2787929 5.4956328l-.2212071.0043672h-13.5v7h6c.8284271 0 1.5.6715729 1.5 1.5s-.6715729 1.5-1.5 1.5h-15c-.8284271 0-1.5-.6715729-1.5-1.5s.6715729-1.5 1.5-1.5l6-.001v-6.999h-13.5c-2.9634791 0-5.3795391-2.34378-5.4956328-5.2787929l-.0043672-.2212071v-18c0-2.9634791 2.34378-5.3795391 5.2787929-5.4956328l.2212071-.0043672zm7.0710678 0c.8284271 0 1.5.6715729 1.5 1.5v11c0 .1755804-.0301673.3441149-.0856015.500703l4.6566693-.000703c.5522848 0 1 .4477153 1 1 0 .2652165-.1053568.5195704-.2928932.7071068l-6.0710678 6.0710678c-.3905243.3905243-1.0236893.3905243-1.4142136 0l-6.0710678-6.0710678c-.3905243-.3905243-.3905243-1.0236893 0-1.4142136.1875364-.1875364.4418903-.2928932.7071068-.2928932l4.6563173-.0002925c-.0552099-.1563068-.0852495-.3244991-.0852495-.4997075v-11c0-.8284271.6715729-1.5 1.5-1.5z" fill="#fff"/></g></svg>