<svg height="84" viewBox="0 0 84 84" width="84" xmlns="http://www.w3.org/2000/svg"><g fill="none" fill-rule="evenodd"><circle cx="42" cy="42" fill="#ff8806" r="42"/><g fill="#fff" transform="translate(21.906977 27)"><path d="m35.9566627 3.31220519c-4.1303066-4.13472878-10.887382-4.36468161-16.1011202-.69428066-5.2181604-3.67482311-11.97081373-3.44044812-16.10112033.68985849-4.94840802 4.94840802-4.94840802 13.00117928 0 17.95400948l13.71757073 13.7175707c.6367925.6367925 1.4814269.9861439 2.3835496.9861439.9021226 0 1.746757-.3493514 2.3835495-.9861439l13.7175707-13.7175707c4.9484081-4.9484081 4.9484081-13.00117929 0-17.94958731zm-2.3835495 15.56603771-13.7175707 13.7219929-13.7175708-13.7219929c-3.63502359-3.6350236-3.63502359-9.55188677 0-13.18691035 1.61851415-1.61851415 3.63944575-2.2995283 5.6736439-2.2995283 2.4587264 0 4.9439858.99056603 6.7924528 2.50294811.7252358.59699292 1.7777123.59699292 2.5029481 0 3.3741156-2.7682783 8.8885613-3.78095519 12.4660967-.20341981 3.6350236 3.63944575 3.6350236 9.55188675 0 13.18691035z"/><path d="m13.5318396 5.48791274c-4.41332545 0-8.00412734 3.59080188-8.00412734 8.00412736 0 .9286557.75619104 1.6848467 1.6848467 1.6848467s1.6848467-.756191 1.6848467-1.6848467c0-2.5560142 2.07841984-4.63443397 4.63443394-4.63443397.9286557 0 1.6848467-.75619104 1.6848467-1.6848467s-.7517688-1.68484669-1.6848467-1.68484669z"/></g></g></svg>