<svg height="84" viewBox="0 0 84 84" width="84" xmlns="http://www.w3.org/2000/svg"><g fill="none" fill-rule="evenodd"><circle cx="42" cy="42" fill="#8543e0" r="42"/><path d="m50.2308315 58.5827013c.3151759.7661303-.0503949 1.6427022-.8165252 1.9578781-2.3322733.9594664-4.8397518 1.4594206-7.4143063 1.4594206s-5.082033-.4999542-7.4143063-1.4594206c-.7661303-.3151759-1.1317011-1.1917478-.8165252-1.9578781.3151758-.7661303 1.1917477-1.1317011 1.957878-.8165252 1.9717422.8111486 4.0916345 1.2338239 6.2729535 1.2338239s4.3012113-.4226753 6.2729535-1.2338239c.7661303-.3151759 1.6427022.0503949 1.957878.8165252zm5.7691685-16.0147471c4.1421356 0 7.5 3.3578644 7.5 7.5 0 4.1421357-3.3578644 7.5-7.5 7.5s-7.5-3.3578643-7.5-7.5c0-4.1421356 3.3578644-7.5 7.5-7.5zm-31.9808041 2.4817434c1.0130785-1.6462526 3.1688924-2.1595417 4.8151451-1.1464631.4666215.2871517.8593114.6798416 1.1464631 1.1464631l4.4208712 7.1839156c1.0130785 1.6462527.4997895 3.8020666-1.1464632 4.8151451-.5516269.3394628-1.1866317.5191959-1.8343409.5191959h-8.8417424c-1.9329966 0-3.5-1.5670033-3.5-3.5 0-.6477092.1797332-1.282714.5191959-1.834341zm31.9808041.5182566c-2.4852814 0-4.5 2.0147187-4.5 4.5 0 2.4852814 2.0147186 4.5 4.5 4.5s4.5-2.0147186 4.5-4.5c0-2.4852813-2.0147186-4.5-4.5-4.5zm-28.8187166.8500123c-.2208368-.0861895-.4784677-.0050246-.6071126.2040234l-4.4208711 7.1839156c-.0484947.0788039-.0741709.1695188-.0741709.2620487 0 .2761424.2238577.5.5.5h8.8417424c.0925298 0 .1832448-.0256761.2620487-.0741708.2351789-.1447255.3085059-.4526989.1637804-.6878779l-4.4208711-7.1839156c-.0410217-.0666602-.0971203-.1227588-.1637805-.1637804zm5.0046626-19.0838c.5067327.6553727.3862363 1.5974454-.2691364 2.1041781-3.4235037 2.6470458-5.6945358 6.5341059-6.271109 10.8580015-.109498.8211588-.8639444 1.3980738-1.6851031 1.2885757-.8211588-.109498-1.3980738-.8639444-1.2885757-1.6851032.6818967-5.1137486 3.3663818-9.7084679 7.409746-12.8347885.6553727-.5067328 1.5974454-.3862363 2.1041782.2691364zm21.7312644-.2699682c4.0439098 3.1263363 6.728811 7.7214212 7.4107678 12.8356203.1094981.8211588-.4674169 1.5756052-1.2885757 1.6851032-.8211587.1094981-1.5756051-.4674169-1.6851031-1.2885757-.5766244-4.3242797-2.8480129-8.2116566-6.2719815-10.858718-.6554046-.5066916-.7759603-1.4487566-.2692687-2.1041612s1.4487567-.7759602 2.1041612-.2692686zm-7.9172104-9.0641983c1.9329966 0 3.5 1.5670034 3.5 3.5v8c0 1.9329966-1.5670034 3.5-3.5 3.5h-8c-1.9329966 0-3.5-1.5670034-3.5-3.5v-8c0-1.9329966 1.5670034-3.5 3.5-3.5zm0 3h-8c-.2761424 0-.5.2238576-.5.5v8c0 .2761424.2238576.5.5.5h8c.2761424 0 .5-.2238576.5-.5v-8c0-.2761424-.2238576-.5-.5-.5z" fill="#fff"/></g></svg>