<svg height="84" viewBox="0 0 84 84" width="84" xmlns="http://www.w3.org/2000/svg" xmlns:xlink="http://www.w3.org/1999/xlink"><filter id="a" height="112.5%" width="108.8%" x="-4.4%" y="-6.2%"><feGaussianBlur in="SourceGraphic" stdDeviation="0"/></filter><filter id="b" height="121.4%" width="112.5%" x="-6.2%" y="-10.7%"><feGaussianBlur in="SourceGraphic" stdDeviation="0"/></filter><filter id="c" height="100%" width="100%" x="0%" y="0%"><feGaussianBlur in="SourceGraphic" stdDeviation="0"/></filter><filter id="d" height="100%" width="100%" x="0%" y="0%"><feGaussianBlur in="SourceGraphic" stdDeviation="0"/></filter><filter id="e" height="200%" width="150%" x="-25%" y="-50%"><feGaussianBlur in="SourceGraphic" stdDeviation="0"/></filter><g fill="none" fill-rule="evenodd"><circle cx="42" cy="42" fill="#15c292" r="42"/><g transform="translate(20 28)"><rect filter="url(#a)" height="24" rx="2" stroke="#fff" stroke-width="3" width="34"/><rect fill="#15c292" filter="url(#b)" height="14" rx="2" stroke="#fff" stroke-width="3" transform="matrix(0 1 -1 0 55 -19)" width="24" x="25" y="11"/><rect fill="#fff" filter="url(#c)" height="3" rx="1.5" width="20" x="7" y="28"/><rect fill="#fff" filter="url(#d)" height="3" rx="1.5" transform="matrix(0 1 -1 0 43.5 9.5)" width="6" x="14" y="25"/><rect filter="url(#e)" height="1" rx=".5" stroke="#fff" width="2" x="36" y="26"/></g></g></svg>