<?xml version="1.0" encoding="UTF-8"?>
<svg width="29px" height="24px" viewBox="0 0 29 24" version="1.1" xmlns="http://www.w3.org/2000/svg" xmlns:xlink="http://www.w3.org/1999/xlink">
    <title>icon_å®¶å±…å®¶è£…</title>
    <g id="ðŸ”-å¯¼èˆª" stroke="none" stroke-width="1" fill="none" fill-rule="evenodd">
        <g id="ðŸ”å¯¼èˆªäº¤äº’è¯´æ˜Ž" transform="translate(-618.000000, -1185.000000)" fill="#010101" fill-rule="nonzero">
            <g id="ç¼–ç»„-24" transform="translate(618.000000, 1177.500000)">
                <g id="icon_å®¶å±…å®¶è£…" transform="translate(0.000000, 7.500000)">
                    <path d="M28.6783915,8.11899777 C28.4991811,7.88006879 28.1407603,7.70085839 27.7823395,7.70085839 L26.6903427,7.70085839 C26.8412251,6.0925038 26.4487341,4.51340695 25.5123228,3.16082504 C24.4370604,1.60764998 22.8838853,0.592160812 21.0320627,0.233740005 C18.8218193,-0.184399375 16.5518026,0.53244224 14.938909,2.02584404 C13.3260153,0.47266898 11.0559987,-0.184399375 8.84575524,0.233740005 C6.99387794,0.592160812 5.44070288,1.60764998 4.36544046,3.16082504 C3.48109153,4.51340695 3.04999125,6.0925038 3.19004552,7.70085839 L2.09542378,7.70085839 C1.73700297,7.70085839 1.43830074,7.82035022 1.19937176,8.11899777 C0.960442787,8.35792675 0.900669528,8.71634755 0.960442787,9.07476836 L3.34989661,20.2455867 C3.46938844,20.7832179 3.94724639,21.1416387 4.4848776,21.1416387 L4.96279024,21.1416387 L4.96279024,22.6948137 C4.96279024,23.3519368 5.50042145,23.889568 6.1575445,23.889568 C6.81466754,23.889568 7.29252549,23.3519368 7.35229875,22.6948137 L7.35229875,21.1416387 L22.5254645,21.1416387 L22.5254645,22.6948137 C22.5254645,23.3519368 23.0630957,23.889568 23.7202187,23.889568 C24.3773418,23.889568 24.914973,23.3519368 24.914973,22.6948137 L24.914973,21.1416387 L25.3928856,21.1416387 C25.9305169,21.1416387 26.4084295,20.7832179 26.5278666,20.2455867 L28.9173205,9.07476836 C28.9770937,8.77612081 28.9173205,8.4177 28.6783915,8.11899777 Z M6.3367549,4.53478969 C7.05359651,3.45952727 8.12885894,2.80240423 9.32361319,2.56347525 C11.1157172,2.20505445 12.9078213,2.98161463 13.9830837,4.47507112 C14.2220127,4.77377336 14.5804335,4.95298376 14.9388543,4.95298376 C15.2972751,4.95298376 15.6556959,4.77377336 15.8946249,4.47507112 C16.9101687,2.98166932 18.7619913,2.20505445 20.5540954,2.56347525 C21.8085682,2.80240423 22.824112,3.51924584 23.5409537,4.53478969 C24.1982955,5.46600567 24.4525369,6.59808824 24.3061936,7.70085839 L23.1825329,7.70085839 C23.1203533,7.70085839 23.0593223,7.70572556 22.9996584,7.71496772 C22.4947302,7.72683487 22.073583,8.06343543 21.92806,8.59691041 L20.7333058,13.674575 L9.08468422,13.674575 L7.83021139,8.59691041 C7.69491492,8.14584925 7.28705676,7.7971081 6.83823778,7.73044424 C6.75369116,7.71130367 6.66591798,7.70085839 6.57573856,7.70085839 L5.57151499,7.70085839 C5.42517168,6.59808824 5.67941311,5.46600567 6.3367549,4.53478969 Z M24.4370604,18.8716767 L24.239311,18.8716767 C24.0820849,18.7952238 23.9059369,18.7521848 23.7202187,18.7521848 C23.5345006,18.7521848 23.358298,18.7951691 23.2011265,18.8716767 L6.6766367,18.8716767 C6.51941061,18.7952238 6.34326269,18.7521848 6.1575445,18.7521848 C5.9718263,18.7521848 5.7956237,18.7951691 5.63845229,18.8716767 L5.44070288,18.8716767 L3.52910701,10.0903122 L5.78419405,10.0903122 L7.05359651,15.1679768 C7.17308835,15.705608 7.6509463,16.0640288 8.18857751,16.0640288 L21.689131,16.0640288 C22.2267623,16.0640288 22.7046749,15.6458894 22.7643935,15.1679768 L23.9830461,10.0903122 L26.3486015,10.0903122 L24.4370604,18.8716767 Z" id="å½¢çŠ¶"></path>
                </g>
            </g>
        </g>
    </g>
</svg>