<?xml version="1.0" encoding="UTF-8"?>
<svg width="29px" height="27px" viewBox="0 0 29 27" version="1.1" xmlns="http://www.w3.org/2000/svg" xmlns:xlink="http://www.w3.org/1999/xlink">
    <title>icon_智慧政企</title>
    <g id="🍔-导航" stroke="none" stroke-width="1" fill="none" fill-rule="evenodd">
        <g id="🍔导航交互说明" transform="translate(-618.000000, -1246.000000)" fill="#040F42" fill-rule="nonzero">
            <g id="编组-22" transform="translate(618.000000, 1242.500000)">
                <g id="icon_智慧政企" transform="translate(0.000000, 3.500000)">
                    <path d="M27.8577047,11.8081982 C28.9027156,11.8081982 29.3389823,10.465579 28.4901223,9.84668904 L15.5745991,0.451736589 C15.1960916,0.174420217 14.6815075,0.174420217 14.3030001,0.451736589 L1.38747687,9.84668904 C0.538616877,10.4621971 0.974883567,11.8081982 2.02327639,11.8081982 L4.11668012,11.8081982 L4.11668012,24.4565503 L1.68170324,24.4565503 C1.5328991,24.4565503 1.41115026,24.5782991 1.41115026,24.7271033 L1.41115026,26.4856977 C1.41115026,26.6345018 1.5328991,26.7562507 1.68170324,26.7562507 L28.1958959,26.7562507 C28.3447001,26.7562507 28.4664489,26.6345018 28.4664489,26.4856977 L28.4664489,24.7271033 C28.4664489,24.5782991 28.3447001,24.4565503 28.1958959,24.4565503 L25.760919,24.4565503 L25.760919,11.8081982 L27.8577047,11.8081982 Z M14.9387996,2.83598478 L24.1071639,9.5051159 L5.77043525,9.5051159 L14.9387996,2.83598478 Z M6.551657,11.8081982 L10.5084944,11.8081982 L10.5084944,24.4565503 L6.551657,24.4565503 L6.551657,11.8081982 Z M12.9434713,11.8081982 L16.9003087,11.8081982 L16.9003087,24.4565503 L12.9434713,24.4565503 L12.9434713,11.8081982 Z M23.3259422,24.4565503 L19.3352856,24.4565503 L19.3352856,11.8081982 L23.3259422,11.8081982 L23.3259422,24.4565503 Z" id="形状"></path>
                </g>
            </g>
        </g>
    </g>
</svg>