<?xml version="1.0" encoding="UTF-8"?>
<svg width="32px" height="33px" viewBox="0 0 32 33" version="1.1" xmlns="http://www.w3.org/2000/svg" xmlns:xlink="http://www.w3.org/1999/xlink">
    <title>icon_企服行业</title>
    <g id="🍔-导航" stroke="none" stroke-width="1" fill="none" fill-rule="evenodd">
        <g id="🍔导航交互说明" transform="translate(-180.000000, -1181.000000)">
            <g id="编组-11" transform="translate(180.000000, 1177.500000)">
                <g id="icon_企服行业" transform="translate(0.000000, 3.500000)">
                    <polygon id="路径" points="0 0.5 32 0.5 32 32.5 0 32.5"></polygon>
                    <path d="M29.3333333,28.5 L2.66666667,28.5 L2.66666667,25.8333333 L4,25.8333333 L4,5.83333333 C4,5.09695367 4.59695367,4.5 5.33333333,4.5 L24,4.5 C24.7363797,4.5 25.3333333,5.09695367 25.3333333,5.83333333 L25.3333333,12.5 L28,12.5 L28,25.8333333 L29.3333333,25.8333333 L29.3333333,28.5 Z M22.6666667,25.8333333 L25.3333333,25.8333333 L25.3333333,15.1666667 L17.3333333,15.1666667 L17.3333333,25.8333333 L20,25.8333333 L20,17.8333333 L22.6666667,17.8333333 L22.6666667,25.8333333 Z M22.6666667,12.5 L22.6666667,7.16666667 L6.66666667,7.16666667 L6.66666667,25.8333333 L14.6666667,25.8333333 L14.6666667,12.5 L22.6666667,12.5 Z M9.33333333,15.1666667 L12,15.1666667 L12,17.8333333 L9.33333333,17.8333333 L9.33333333,15.1666667 Z M9.33333333,20.5 L12,20.5 L12,23.1666667 L9.33333333,23.1666667 L9.33333333,20.5 Z M9.33333333,9.83333333 L12,9.83333333 L12,12.5 L9.33333333,12.5 L9.33333333,9.83333333 Z" id="形状" fill="#040F42" fill-rule="nonzero"></path>
                </g>
            </g>
        </g>
    </g>
</svg>