<?xml version="1.0" encoding="UTF-8"?>
<svg width="31px" height="25px" viewBox="0 0 31 25" version="1.1" xmlns="http://www.w3.org/2000/svg" xmlns:xlink="http://www.w3.org/1999/xlink">
    <title>icon_æ•™è‚²è¡Œä¸š</title>
    <g id="ðŸ”-å¯¼èˆª" stroke="none" stroke-width="1" fill="none" fill-rule="evenodd">
        <g id="ðŸ”å¯¼èˆªäº¤äº’è¯´æ˜Ž" transform="translate(-1001.000000, -1181.000000)" fill="#040F42" fill-rule="nonzero" stroke="#040F42" stroke-width="0.5">
            <g id="ç¼–ç»„-19" transform="translate(1001.000000, 1177.500000)">
                <g id="icon_æ•™è‚²è¡Œä¸š" transform="translate(0.000000, 3.500000)">
                    <path d="M29.6340865,17.8274332 L29.6340865,10.2664274 L30.1055363,10.0175806 C30.4120256,9.85824371 30.6050752,9.5423524 30.6088796,9.19652683 C30.6125734,8.85157996 30.4255868,8.53196883 30.1228467,8.36563162 L16.0215286,0.820559496 C15.7394378,0.66590895 15.3982401,0.666816936 15.1142454,0.823342035 L1.09025267,8.37778692 C0.791700966,8.54418271 0.607086876,8.86001544 0.608947287,9.20261912 C0.61083598,9.54522281 0.799228464,9.85871235 1.10152928,10.021857 L7.2636506,13.3018252 C7.18632533,13.4381988 7.13852425,13.5937867 7.13852425,13.7615591 L7.13852425,21.6927889 C7.13852425,21.9599126 7.25290122,22.2153203 7.45251173,22.3929341 C7.65592992,22.5733598 9.60358953,24.1531385 15.5585728,24.1531385 C21.4924675,24.1531385 23.4926145,22.6600578 23.7011584,22.4899422 C23.9190751,22.3123284 24.0451388,22.046142 24.0451388,21.7640219 L24.0451388,13.6293739 C24.0451388,13.4976866 24.0174891,13.3725602 23.9687508,13.2591498 L27.7595637,11.2566303 L27.7595637,17.8325883 C27.203759,18.157823 26.826974,18.7543992 26.826974,19.4442344 C26.826974,20.4794558 27.6663047,21.3187865 28.7015261,21.3187865 C29.7367475,21.3187865 30.5760782,20.4794558 30.5760782,19.4442344 C30.5760782,18.7501522 30.1941382,18.1512328 29.6341158,17.8274332 L29.6340865,17.8274332 Z M22.1705281,21.2269334 C21.4338291,21.5812238 19.484295,22.2785572 15.5585143,22.2785572 C11.6078958,22.2785572 9.70241357,21.5362345 9.01304704,21.1791324 L9.01304704,14.2334483 L15.0997176,17.4736115 C15.2363117,17.5474825 15.3891655,17.5861389 15.5444551,17.5860847 C15.695693,17.5862175 15.8446704,17.5493754 15.9784139,17.4787666 L22.1705281,14.2081418 L22.1705281,21.2269334 L22.1705281,21.2269334 Z M15.5519533,15.5869335 L3.49624027,9.18530881 L15.573042,2.71294911 L27.6873349,9.16656329 L15.5519533,15.5869335 Z" id="å½¢çŠ¶"></path>
                </g>
            </g>
        </g>
    </g>
</svg>