<?xml version="1.0" encoding="UTF-8"?>
<svg width="26px" height="28px" viewBox="0 0 26 28" version="1.1" xmlns="http://www.w3.org/2000/svg" xmlns:xlink="http://www.w3.org/1999/xlink">
    <title>icon_åŒ»ç¾Ž</title>
    <g id="ðŸ”-å¯¼èˆª" stroke="none" stroke-width="1" fill="none" fill-rule="evenodd">
        <g id="ðŸ”å¯¼èˆªäº¤äº’è¯´æ˜Ž" transform="translate(-185.000000, -1248.000000)" fill="#040F42" fill-rule="nonzero">
            <g id="ç¼–ç»„-23" transform="translate(185.000000, 1242.500000)">
                <g id="icon_åŒ»ç¾Ž" transform="translate(0.000000, 5.500000)">
                    <path d="M12.9999661,0 C6.0377608,0 0.373538664,5.66422214 0.373538664,12.6264275 L0.373538664,24.4722506 C0.373538664,25.1265907 0.903984022,25.6570361 1.55832408,25.6570361 L7.0077277,25.6570361 C8.58545567,27.1107339 10.6907178,28 13.0000339,28 C15.3094176,28 17.4146797,27.1106662 18.9924077,25.6570361 L24.4416759,25.6570361 C25.096016,25.6570361 25.6264613,25.1265907 25.6264613,24.4722506 L25.6264613,12.6264275 C25.6264613,5.66422214 19.9622392,0 12.9999661,0 Z M13.0000339,25.6304292 C9.4258409,25.6304292 6.51797126,22.7225595 6.51797126,19.1483666 L6.51797126,17.6143064 L19.4821641,14.065434 L19.4821641,19.1483666 C19.4821641,22.7225595 16.5742945,25.6304292 13.0000339,25.6304292 Z M23.2568905,23.2874652 L20.8223257,23.2874652 C21.4789676,22.0515648 21.851735,20.6427533 21.851735,19.1483666 L21.851735,12.5127558 C21.851735,12.1433058 21.6793656,11.7949789 21.3856743,11.5708175 C21.0919152,11.3466561 20.7103466,11.272387 20.3541662,11.3700133 L6.51797126,15.1576031 L6.51797126,11.5486113 C6.51797126,10.8942712 5.9875259,10.3638258 5.33318584,10.3638258 C4.67884578,10.3638258 4.14840042,10.8942712 4.14840042,11.5486113 L4.14840042,19.1483666 C4.14840042,20.6427533 4.52116776,22.0514971 5.17780969,23.2874652 L2.74310951,23.2874652 L2.74310951,12.6264275 C2.74310951,6.9707358 7.34427446,2.36957084 12.9999661,2.36957084 C18.6556578,2.36957084 23.2568905,6.9707358 23.2568905,12.6264275 L23.2568905,23.2874652 L23.2568905,23.2874652 Z" id="å½¢çŠ¶"></path>
                </g>
            </g>
        </g>
    </g>
</svg>