<svg height="48" viewBox="0 0 96 48" width="96" xmlns="http://www.w3.org/2000/svg" xmlns:xlink="http://www.w3.org/1999/xlink"><defs><linearGradient id="a"><stop offset="0" stop-color="#1880ff"/><stop offset="1" stop-color="#69b6ff"/></linearGradient><radialGradient id="b" cx="29.839638%" cy="75.063136%" gradientTransform="matrix(.63102273 -.67431842 .77576434 .54850452 -.472211 .54012)" r="165.826616%" xlink:href="#a"/><radialGradient id="c" cx="100%" cy="97.64806%" gradientTransform="matrix(-.61858511 -.5523824 .81379386 -.45042295 .823931 1.968693)" r="112.662858%"><stop offset="0" stop-color="#e6f5ff"/><stop offset="1" stop-color="#fff"/></radialGradient><radialGradient id="d" cx="29.839638%" cy="75.063136%" r="153.144697%" xlink:href="#a"/><circle id="e" cx="23.230769" cy="13.076923" r="1.076923"/><filter id="f" height="425%" width="425%" x="-162.5%" y="-116.1%"><feOffset dx="0" dy="1" in="SourceAlpha" result="shadowOffsetOuter1"/><feGaussianBlur in="shadowOffsetOuter1" result="shadowBlurOuter1" stdDeviation="1"/><feColorMatrix in="shadowBlurOuter1" type="matrix" values="0 0 0 0 0.0941176471   0 0 0 0 0.501960784   0 0 0 0 1  0 0 0 0.296547203 0"/></filter><radialGradient id="g" cx="29.839638%" cy="75.063136%" gradientTransform="matrix(.65483913 -.69976848 .64145467 .71436971 -.378501 .423211)" r="159.795582%" xlink:href="#a"/><path id="h" d="m12.9230769 15.6923077h7.3846154l-3.1145834 6.7692308c-2.4696883-1.1651384-4.2046221-3.7498663-4.270032-6.7692308z"/><filter id="i" height="203.4%" width="194.8%" x="-47.4%" y="-36.9%"><feOffset dx="0" dy="1" in="SourceAlpha" result="shadowOffsetOuter1"/><feGaussianBlur in="shadowOffsetOuter1" result="shadowBlurOuter1" stdDeviation="1"/><feColorMatrix in="shadowBlurOuter1" type="matrix" values="0 0 0 0 0.0941176471   0 0 0 0 0.501960784   0 0 0 0 1  0 0 0 0.296547203 0"/></filter></defs><g fill="none" fill-rule="evenodd"><g transform="translate(6.615385 4)"><path d="m17.3846154 0c9.6012579 0 17.3846154 7.78335743 17.3846154 17.3846154 0 12.372864-9.666291 22.6153846-20.3076923 22.6153846-.2811675 0-.5610003-.0056275-.8393887-.0167743 1.6283495-1.4731962 2.9771546-3.2401042 3.9594052-5.2151944l-.1969396.0011995c-9.60125797 0-17.3846154-7.7833575-17.3846154-17.3846154 0-9.60125797 7.78335743-17.3846154 17.3846154-17.3846154z" fill="url(#b)"/><path d="m19.9365477 33.1088012c-.2658042.0190108-.5312595.0319443-.796075.0390782l-.2645913.0052111-.2113226.0014265c-3.4459208.0035833-6.7530272-.9529532-9.27395332-2.2516769l4.60493332-8.4388699-.1004012-.1090385c-1.5600336-1.7202983-2.5105222-4.0035388-2.5105222-6.5087779 0-5.3529137 4.3393939-9.69230765 9.6923077-9.69230765 2.8096011 0 5.3399858 1.19546797 7.1102381 3.10548802 1.3117306 1.41529643 2.1689926 2.77393013 2.5748241 3.97826463.9212157 2.733775 1.3799139 6.3674218.6100432 10.2458844-1.0034066 5.054972-4.5799816 10.3957055-11.434691 13.5848348-.987296.4819635-1.7820224.7841612-2.3841792.9065931 1.2618805-1.557123 2.1089094-3.8180916 2.3833894-4.8661099z" fill="url(#c)"/><use fill="#000" filter="url(#f)" xlink:href="#e"/><use fill="url(#d)" fill-rule="evenodd" xlink:href="#e"/><use fill="#000" filter="url(#i)" xlink:href="#h"/><use fill="url(#g)" fill-rule="evenodd" xlink:href="#h"/></g><path d="m70.56 25.392v-2.112h-9.408v-1.848h7.344v-1.968h-7.344v-1.824h8.616v-2.064h-4.992c.36-.672.648-1.368.864-2.112l-2.448-.312c-.192.84-.48 1.656-.84 2.424h-4.632c-.312-.864-.624-1.656-.96-2.352l-2.4.384c.384.6.72 1.248 1.032 1.968h-5.16v2.064h8.616v1.824h-7.272v1.968h7.272v1.848h-9.408v2.112zm-20.76 10.248c3.984-.816 6.744-1.92 8.328-3.312.72-.648 1.32-1.392 1.824-2.256 1.608 2.664 4.968 4.488 10.104 5.496l1.2-2.16c-4.464-.672-7.512-1.944-9.144-3.816h7.92v-2.16h-9c.12-.432.216-.888.288-1.344l-2.304-.24c-.096.528-.216 1.056-.384 1.584h-8.64v2.16h7.464c-.336.432-.72.816-1.2 1.2-1.512 1.152-3.984 2.016-7.392 2.616zm29.832-13.032c2.736-1.8 5.064-4.152 7.032-7.08 1.824 2.904 4.248 5.256 7.272 7.032l1.32-1.944c-3.36-1.92-5.856-4.32-7.536-7.2h-2.112c-1.872 2.976-4.296 5.4-7.272 7.272zm-1.92-3.96 1.608-1.608c-1.152-1.152-2.52-2.304-4.152-3.456l-1.608 1.56c1.776 1.248 3.168 2.4 4.152 3.504zm-.648 5.784 1.584-1.584c-1.104-1.176-2.472-2.352-4.104-3.528l-1.608 1.56c1.776 1.248 3.144 2.448 4.128 3.552zm14.136-1.536v-2.112h-9.072v2.112zm-8.04 12.552v-1.248h7.128v1.248h2.16v-9.912h-11.472v9.912zm-7.8-.216c1.248-2.712 2.352-5.592 3.36-8.664l-1.992-.768c-.984 2.88-2.136 5.712-3.48 8.496zm14.928-3.144h-7.128v-4.44h7.128z" fill="#1d2754" fill-rule="nonzero"/></g></svg>